Coordinates
version=1
nRows=8
nColumns=36
inDegrees=yes

Units are S.I. units (second, meters, Newtons, ...)
If the header above contains a line with 'inDegrees', this indicates whether rotational values are in degrees (yes) or radians (no).

endheader
time	pelvis_tilt	pelvis_list	pelvis_rotation	pelvis_tx	pelvis_ty	pelvis_tz	hip_flexion_r	hip_adduction_r	hip_rotation_r	knee_angle_r	knee_angle_r_beta	ankle_angle_r	subtalar_angle_r	mtp_angle_r	hip_flexion_l	hip_adduction_l	hip_rotation_l	knee_angle_l	knee_angle_l_beta	ankle_angle_l	subtalar_angle_l	mtp_angle_l	lumbar_extension	lumbar_bending	lumbar_rotation	arm_flex_r	arm_add_r	arm_rot_r	elbow_flex_r	pro_sup_r	arm_flex_l	arm_add_l	arm_rot_l	elbow_flex_l	pro_sup_l
      4.35000000	    -23.35246153	     -0.55494257	      1.71986918	      0.72618497	      0.85711017	     -0.09974430	     53.79763683	    -12.92556808	     -7.60022019	     49.80717302	      0.86929916	     11.05750387	    -25.66878367	     -7.49999987	     52.70773040	    -11.99632803	     -2.31429237	     49.00602506	      0.85531649	      8.41904938	    -23.86751079	     -7.49999987	    -25.52884813	     -1.76004907	     -1.15076820	     22.30132301	    -17.75534632	   -359.89296235	     33.32735792	     82.44200047	     21.51207949	    -16.93829294	     -2.58425069	     27.56017694	     77.87141334
      4.36666670	    -22.60470669	     -0.32055745	      1.58871167	      0.72708115	      0.86397591	     -0.09972245	     51.24004343	    -13.19748487	     -8.74463071	     46.89414802	      0.81845728	     10.21134242	    -24.44057158	     -7.49999987	     50.29484963	    -11.74406289	     -2.97141477	     46.34382301	      0.80885230	      7.23987152	    -23.89952547	     -7.49999987	    -24.31222332	     -1.89429756	     -1.25281177	     21.04448292	    -17.77726827	   -359.25160693	     31.27676283	     81.98853005	     18.97025999	    -16.36516721	     -3.54924318	     25.04317809	     77.47134471
      4.38333330	    -21.95724823	     -0.12891742	      1.53985432	      0.72879577	      0.87089075	     -0.09900348	     48.96242553	    -13.41586836	     -9.80430511	     44.24151892	      0.77216017	      9.68659125	    -23.10153897	     -7.49999987	     48.18060250	    -11.47334509	     -3.46295816	     43.99131293	      0.76779325	      6.27782654	    -23.97893942	     -7.49999987	    -22.82413353	     -2.04103778	     -1.32390192	     19.74419656	    -17.98959458	   -358.32086324	     29.22910247	     82.29752224	     16.77166357	    -15.87492007	     -4.32038040	     22.32509724	     77.80076721
      4.40000000	    -21.63023073	      0.13419266	      1.35195426	      0.73626409	      0.87821822	     -0.10146840	     46.94601420	    -13.52211900	    -10.66827453	     41.43915662	      0.72324972	      9.03508094	    -22.17189470	     -7.49999987	     46.14646538	    -11.19846153	     -4.13951941	     41.42470409	      0.72299748	      5.66477973	    -23.67165440	     -7.49999987	    -20.43333166	     -2.25704604	     -1.09327120	     17.42367764	    -18.15256690	   -358.16662949	     28.20201085	     82.42639932	     13.62770402	    -15.36976994	     -4.46458951	     20.67121943	     77.86310967
      4.41666670	    -19.18295257	      0.11385846	      1.30685555	      0.74398299	      0.89263124	     -0.09788214	     41.59767972	    -13.26029216	    -12.22525364	     37.19840221	      0.64923460	      8.61014974	    -20.16744608	     -7.49999987	     41.01886497	    -11.17737042	     -5.06409369	     37.51057560	      0.65468305	      3.38224499	    -24.03558325	     -7.49999987	    -20.55960548	     -2.06459239	     -0.59622353	     16.35500212	    -18.26054000	   -357.43959021	     24.48298610	     83.13828543	     12.73348929	    -14.51566720	     -5.26591019	     16.04895347	     78.39251735
      4.43333330	    -17.81254256	      0.10876339	      1.32777402	      0.74456599	      0.90119961	     -0.09794033	     37.81663660	    -12.98627739	    -13.50050636	     33.51025757	      0.58486433	      8.30277719	    -18.37415876	     -7.49999987	     37.38909547	    -11.14124950	     -6.12392234	     33.93976905	      0.59236072	      2.00256044	    -23.34764887	     -7.49999987	    -19.43922007	     -1.82475129	     -0.45648043	     14.55092132	    -18.34542817	   -356.02295666	     22.12031795	     84.47688919	     10.92618054	    -13.98194473	     -5.80526529	     13.61008678	     79.69962398
      4.45000000	    -16.64223146	      0.24619134	      1.10844140	      0.74611479	      0.90905188	     -0.09697816	     34.72418157	    -12.69552342	    -14.33330604	     30.42400585	      0.53099907	      7.68027163	    -17.13439688	     -7.49999987	     33.97641769	    -11.15607916	     -7.63385255	     30.52241364	      0.53271661	      0.68718679	    -22.55300093	     -7.49999987	    -18.23086533	     -1.85780363	     -0.12175258	     12.70779245	    -18.19799920	   -354.70701996	     20.32904125	     85.79305114	      8.81342783	    -13.56437330	     -6.37315080	     12.29883773	     80.99811724
      4.46666670	    -15.58145660	      0.32513545	      1.01448262	      0.75332157	      0.91476502	     -0.10008066	     31.93733138	    -12.48591044	    -15.28343546	     27.66741451	      0.48288748	      7.13740066	    -15.89753779	     -7.49999987	     30.98489752	    -11.04654356	     -8.87649387	     27.66635965	      0.48286907	     -0.21167677	    -21.74447138	     -7.49999987	    -16.88603526	     -1.67961578	     -0.61477092	     11.56665630	    -18.08206847	   -353.15839994	     18.25495161	     93.89999369	      6.08448828	    -12.74683719	    -15.87833593	     11.75667919	     95.05606786
